<?xml version="1.0" encoding="UTF-8"?>
<svg width="49px" height="49px" viewBox="0 0 49 49" version="1.1" xmlns="http://www.w3.org/2000/svg" xmlns:xlink="http://www.w3.org/1999/xlink">
    <!-- Generator: Sketch 52.2 (67145) - http://www.bohemiancoding.com/sketch -->
    <title>Group</title>
    <desc>Created with Sketch.</desc>
    <defs>
        <linearGradient x1="100%" y1="100%" x2="0%" y2="0%" id="linearGradient-1">
            <stop stop-color="#EBC2A6" offset="0%"></stop>
            <stop stop-color="#A9876F" offset="100%"></stop>
        </linearGradient>
        <polygon id="path-2" points="0.000245901639 0.306574138 24.917459 0.306574138 24.917459 22.2068966 0.000245901639 22.2068966"></polygon>
    </defs>
    <g id="页面1" stroke="none" stroke-width="1" fill="none" fill-rule="evenodd">
        <g id="矿机收益备份-3" transform="translate(-30.000000, -119.000000)">
            <g id="Group" transform="translate(30.000000, 119.000000)">
                <rect id="Active备份" fill="url(#linearGradient-1)" transform="translate(24.500000, 24.500000) scale(1, -1) translate(-24.500000, -24.500000) " x="0" y="0" width="49" height="49" rx="24.5"></rect>
                <g id="编组" transform="translate(12.000000, 14.000000)">
                    <path d="M9.95221311,8.03409828 L9.95221311,11.4662534 C10.7530328,11.5082879 11.5927869,11.5308914 12.4587705,11.5308914 C13.3247541,11.5308914 14.164918,11.5082879 14.9653279,11.4662534 L14.9653279,8.03409828 C14.164918,7.99206379 13.3247541,7.96946034 12.4587705,7.96946034 C11.5927869,7.96946034 10.7530328,7.99206379 9.95221311,8.03409828" id="Fill-1" fill="#FFFFFF"></path>
                    <g transform="translate(0.000000, 0.090057)">
                        <mask id="mask-3" fill="white">
                            <use xlink:href="#path-2"></use>
                        </mask>
                        <g id="Clip-4"></g>
                        <path d="M12.4588525,11.8228328 C6.99860656,11.8228328 2.57196721,10.9321776 2.57196721,9.83333276 C2.57196721,8.90897069 5.70598361,8.13212586 9.95229508,7.90886724 L9.95229508,7.12409138 C10.7617213,7.07967759 11.6002459,7.05588448 12.4588525,7.05588448 C13.317459,7.05588448 14.1559836,7.07967759 14.9654098,7.12409138 L14.9654098,7.90886724 C19.2117213,8.13212586 22.3457377,8.90897069 22.3457377,9.83333276 C22.3457377,10.9321776 17.9190984,11.8228328 12.4588525,11.8228328 M24.917459,10.3777983 C24.917459,8.75510862 20.644918,7.40167759 14.9654098,7.08879828 L14.9654098,5.15719483 L22.1072131,5.15719483 L22.1072131,0.306574138 L2.8104918,0.306574138 L2.8104918,5.15719483 L9.95229508,5.15719483 L9.95229508,7.08879828 C4.27278689,7.40167759 0.000245901639,8.75510862 0.000245901639,10.3777983 C0.000245901639,12.0004879 4.27278689,13.3543155 9.95229508,13.6667983 L9.95229508,22.2069362 L14.9654098,22.2069362 L14.9654098,13.6667983 C20.644918,13.3543155 24.917459,12.0004879 24.917459,10.3777983" id="Fill-3" fill="#FFFFFF" mask="url(#mask-3)"></path>
                    </g>
                </g>
            </g>
        </g>
    </g>
</svg>