<?xml version="1.0" encoding="utf-8"?>
<!-- Generator: Adobe Illustrator 21.0.0, SVG Export Plug-In . SVG Version: 6.00 Build 0)  -->
<svg version="1.1" xmlns="http://www.w3.org/2000/svg" xmlns:xlink="http://www.w3.org/1999/xlink" x="0px" y="0px"
	 viewBox="0 0 48 48" style="enable-background:new 0 0 48 48;" xml:space="preserve">
<style type="text/css">
	.st0{display:none;}
	.st1{display:inline;fill:#FFFFFF;}
	.st2{fill:#FFFFFF;}
</style>
<g id="图层_1" class="st0">
	<path class="st1" d="M38.1,15.1c0.3,3.3-0.8,5.6-3.5,6.9c2.1,0.5,3.7,1.4,4.7,2.8s1.4,3.3,1.2,5.7c-0.1,1.3-0.4,2.4-0.9,3.3
		c-0.5,1-1,1.8-1.7,2.4s-1.6,1.1-2.6,1.6c-1,0.4-2.1,0.7-3.3,0.9s-2.4,0.3-3.9,0.4V46H24v-6.7c-1.4,0-2.5,0-3.3,0V46h-4.1v-6.8
		c-0.3,0-0.8,0-1.4,0c-0.6,0-1.1,0-1.5,0H8.4l0.8-4.9h3c0.9,0,1.4-0.5,1.6-1.4V22.1h0.4c-0.1,0-0.3,0-0.4,0v-7.7
		c-0.2-1.2-1-1.8-2.4-1.8h-3V8.2l5.7,0c1.1,0,2,0,2.6,0V1.4h4.1V8C22.2,8,23.3,8,24,8V1.4h4.1v6.8c1.4,0.1,2.7,0.3,3.8,0.6
		c1.1,0.3,2.1,0.7,3,1.2s1.7,1.2,2.2,2.1C37.7,12.9,38,14,38.1,15.1L38.1,15.1z M32.4,29.7c0-0.6-0.1-1.2-0.4-1.7s-0.6-0.9-1-1.2
		c-0.4-0.3-0.9-0.6-1.5-0.8c-0.6-0.2-1.2-0.4-1.8-0.5c-0.5-0.1-1.2-0.2-2-0.2c-0.8-0.1-1.4-0.1-1.8-0.1c-0.4,0-1,0-1.7,0
		s-1.1,0-1.3,0v9.1c0.1,0,0.5,0,1,0c0.5,0,0.9,0,1.3,0s0.8,0,1.4,0c0.6,0,1.1-0.1,1.6-0.1s0.9-0.1,1.5-0.2c0.6-0.1,1.1-0.2,1.5-0.4
		c0.4-0.1,0.8-0.3,1.3-0.6c0.4-0.2,0.8-0.5,1.1-0.8c0.3-0.3,0.5-0.7,0.7-1.1C32.3,30.7,32.4,30.3,32.4,29.7L32.4,29.7z M30.5,17
		c0-0.6-0.1-1.1-0.3-1.6s-0.5-0.8-0.8-1.1s-0.7-0.5-1.3-0.8s-1-0.4-1.5-0.4c-0.4-0.1-1-0.2-1.6-0.2c-0.7-0.1-1.2-0.1-1.6-0.1
		c-0.4,0-0.9,0-1.4,0s-0.9,0-1.1,0v8.2c0.1,0,0.4,0,0.9,0c0.5,0,0.9,0,1.2,0c0.3,0,0.7,0,1.3-0.1c0.6,0,1.1-0.1,1.5-0.1
		c0.4-0.1,0.9-0.2,1.4-0.3c0.5-0.1,1-0.3,1.3-0.5s0.7-0.4,1-0.7c0.3-0.3,0.6-0.6,0.7-1S30.5,17.5,30.5,17L30.5,17z"/>
</g>
<g id="图层_2">
	<g>
		<g>
			<polygon class="st2" points="25,2 25,18.1 38.2,24 			"/>
			<polygon class="st2" points="25,19 25,32.6 38.2,24.7 			"/>
			<polygon class="st2" points="25,35.2 25,46 38.6,27 			"/>
		</g>
		<g>
			<polygon class="st2" points="24,2 24,18.1 10.7,24 			"/>
			<polygon class="st2" points="24,19 24,32.6 10.7,24.7 			"/>
			<polygon class="st2" points="24,35.2 24,46 10.4,27 			"/>
		</g>
	</g>
</g>
</svg>
