<?xml version="1.0" encoding="UTF-8"?>
<svg width="17px" height="17px" viewBox="0 0 17 17" version="1.1" xmlns="http://www.w3.org/2000/svg" xmlns:xlink="http://www.w3.org/1999/xlink">
    <!-- Generator: Sketch 52.2 (67145) - http://www.bohemiancoding.com/sketch -->
    <title>Back</title>
    <desc>Created with Sketch.</desc>
    <g id="页面-1" stroke="none" stroke-width="1" fill="none" fill-rule="evenodd">
        <g id="昨日收益备份-11" transform="translate(-16.000000, -58.000000)" fill="#FFFFFF">
            <path d="M20.3867802,64.8865331 L24.8198695,60.5538393 C25.3892409,59.9973624 25.4194479,59.0635449 24.8873388,58.4680993 C24.3552298,57.8726538 23.4623035,57.8410635 22.8929322,58.3975403 L16.7459955,64.4052682 C16.7284294,64.4225545 16.7284294,64.4225545 16.7110909,64.4400904 C15.7805284,65.3877119 15.7607184,66.944827 16.6668441,67.9180044 L22.8454413,74.5538069 C23.3891167,75.1377133 24.2824747,75.1501437 24.8408123,74.5815708 C25.3991498,74.0129979 25.4110358,73.0787288 24.8673604,72.4948224 L20.5313009,67.8379021 L31.5889348,67.8379021 C32.3682446,67.8379021 33,67.1772157 33,66.3622176 C33,65.5472196 32.3682446,64.8865331 31.5889348,64.8865331 L20.3867802,64.8865331 Z" id="Back"></path>
        </g>
    </g>
</svg>