<?xml version="1.0" encoding="UTF-8"?>
<svg width="22px" height="22px" viewBox="0 0 22 22" version="1.1" xmlns="http://www.w3.org/2000/svg" xmlns:xlink="http://www.w3.org/1999/xlink">
    <!-- Generator: Sketch 52.2 (67145) - http://www.bohemiancoding.com/sketch -->
    <title>Case</title>
    <desc>Created with Sketch.</desc>
    <g id="页面-1" stroke="none" stroke-width="1" fill="none" fill-rule="evenodd">
        <g id="昨日收益备份-2" transform="translate(-224.000000, -740.000000)" fill="#FFFFFF">
            <path d="M224,752.666667 L246,752.666667 L246,760 C246,761.104569 245.104569,762 244,762 L226,762 C224.895431,762 224,761.104569 224,760 L224,752.666667 Z M229.866667,744 C229.866667,741.790861 231.836614,740 234.266667,740 L235.733333,740 C238.163386,740 240.133333,741.790861 240.133333,744 L243.066667,744 C244.686702,744 246,745.193907 246,746.666667 L246,750 L224,750 L224,746.666667 C224,745.193907 225.313298,744 226.933333,744 L229.866667,744 Z M237.933333,744 C237.933333,742.895431 236.94836,742 235.733333,742 L234.266667,742 C233.05164,742 232.066667,742.895431 232.066667,744 L237.933333,744 Z" id="Case"></path>
        </g>
    </g>
</svg>