<?xml version="1.0" encoding="UTF-8"?>
<svg width="24px" height="22px" viewBox="0 0 24 22" version="1.1" xmlns="http://www.w3.org/2000/svg" xmlns:xlink="http://www.w3.org/1999/xlink">
    <!-- Generator: Sketch 52.2 (67145) - http://www.bohemiancoding.com/sketch -->
    <title>Shape</title>
    <desc>Created with Sketch.</desc>
    <g id="页面-1" stroke="none" stroke-width="1" fill="none" fill-rule="evenodd">
        <g id="昨日收益备份-2" transform="translate(-129.000000, -740.000000)" fill="#6C7B8A">
            <path d="M148.25,742.75 L149.625,742.75 C151.143783,742.75 152.375,743.981217 152.375,745.5 L152.375,759.25 C152.375,760.768783 151.143783,762 149.625,762 L131.75,762 C130.231217,762 129,760.768783 129,759.25 L129,745.5 C129,743.981217 130.231217,742.75 131.75,742.75 L133.125,742.75 L133.125,742.0625 C133.125,740.923413 134.048413,740 135.1875,740 C136.326587,740 137.25,740.923413 137.25,742.0625 L137.25,742.75 L144.125,742.75 L144.125,742.0625 C144.125,740.923413 145.048413,740 146.1875,740 C147.326587,740 148.25,740.923413 148.25,742.0625 L148.25,742.75 Z M132.78125,748.25 C132.211706,748.25 131.75,748.711706 131.75,749.28125 C131.75,749.850794 132.211706,750.3125 132.78125,750.3125 L148.59375,750.3125 C149.163294,750.3125 149.625,749.850794 149.625,749.28125 C149.625,748.711706 149.163294,748.25 148.59375,748.25 L132.78125,748.25 Z" id="Shape"></path>
        </g>
    </g>
</svg>