<?xml version="1.0" encoding="UTF-8"?>
<svg width="31px" height="31px" viewBox="0 0 31 31" version="1.1" xmlns="http://www.w3.org/2000/svg" xmlns:xlink="http://www.w3.org/1999/xlink">
    <!-- Generator: Sketch 52.2 (67145) - http://www.bohemiancoding.com/sketch -->
    <title>编组</title>
    <desc>Created with Sketch.</desc>
    <defs>
        <polygon id="path-1" points="4.30107527e-05 0 30.9677419 0 30.9677419 18.556617 4.30107527e-05 18.556617"></polygon>
        <polygon id="path-3" points="0.0449445161 0.065287772 14.4066239 0.065287772 14.4066239 15.483871 0.0449445161 15.483871"></polygon>
    </defs>
    <g id="页面1" stroke="none" stroke-width="1" fill="none" fill-rule="evenodd">
        <g id="昨日收益备份-3" transform="translate(-328.000000, -51.000000)">
            <g id="编组" transform="translate(328.000000, 51.000000)">
                <g>
                    <mask id="mask-2" fill="white">
                        <use xlink:href="#path-1"></use>
                    </mask>
                    <g id="Clip-2"></g>
                    <path d="M0.430150538,18.4835613 C0.430150538,18.4835613 4.4952043,15.3699308 10.7695054,14.9692856 C11.0015484,14.9545056 11.1901505,14.8851449 11.2196129,14.6585877 C11.3486452,13.6633619 11.6321935,10.9114205 11.3130538,7.83748504 L4.31498925,9.50140293 L13.5623011,4.08102757 C13.5623011,4.08102757 14.640043,9.1190217 14.6075699,14.7106346 C15.1457419,14.6931097 15.7333763,14.692054 16.3601505,14.7153853 C16.3270323,9.12197771 17.4054194,4.08102757 17.4054194,4.08102757 L26.6527312,9.50140293 L19.6546667,7.83748504 C19.3355269,10.9114205 19.6191828,13.6633619 19.7481075,14.6585877 C19.7775699,14.8851449 19.966172,14.9545056 20.1982151,14.9692856 C26.4725161,15.3699308 30.5375699,18.4835613 30.5375699,18.4835613 C30.5550968,18.508054 30.5715484,18.5322299 30.5887527,18.556617 C30.8362796,17.4774616 30.9677849,16.3550217 30.9677849,15.2022827 C30.9677849,6.80636481 24.0353118,-6.33431085e-05 15.483914,-6.33431085e-05 C6.9324086,-6.33431085e-05 4.30107527e-05,6.80636481 4.30107527e-05,15.2022827 C4.30107527e-05,16.3550217 0.13144086,17.4774616 0.378967742,18.556617 C0.396172043,18.5322299 0.412623656,18.508054 0.430150538,18.4835613" id="Fill-1" fill="#000000" mask="url(#mask-2)"></path>
                </g>
                <path d="M19.6129032,16.5314782 C19.6129032,16.5314782 20.7161208,20.3672895 20.9197584,20.8687575 C21.5788167,22.4913338 24.8335049,25.1757283 27.224464,22.8053381 C29.8242265,20.2279929 24.0339356,16.2376796 19.6129032,16.5314782" id="Fill-3" fill="#000000"></path>
                <path d="M10.0479824,20.8718161 C10.218972,20.3582519 11.3548387,16.531489 11.3548387,16.531489 C6.9339056,16.2374839 1.14350606,20.2306012 3.74327096,22.8097576 C6.13433558,25.1818134 9.5172431,22.4659177 10.0479824,20.8718161" id="Fill-5" fill="#000000"></path>
                <g transform="translate(8.258065, 15.483871)">
                    <mask id="mask-4" fill="white">
                        <use xlink:href="#path-3"></use>
                    </mask>
                    <g id="Clip-8"></g>
                    <path d="M14.2832294,13.8445543 C9.62369588,11.8043907 8.28436486,5.7657901 8.14373955,0.0715420264 C7.58290581,0.061946388 6.96615543,0.0626006361 6.30760655,0.0790658791 C6.16609191,5.77113312 4.8257604,11.8052631 0.168339057,13.8445543 C0.168339057,13.8445543 0.125317717,13.835831 0.0449445161,13.8181663 C2.20479365,14.8832821 4.64367007,15.4838819 7.2258398,15.4838819 C9.80800953,15.4838819 12.246886,14.8832821 14.4066239,13.8181663 C14.3263619,13.835831 14.2832294,13.8445543 14.2832294,13.8445543" id="Fill-7" fill="#000000" mask="url(#mask-4)"></path>
                </g>
            </g>
        </g>
    </g>
</svg>