<?xml version="1.0" encoding="utf-8"?>
<!-- Generator: Adobe Illustrator 21.0.0, SVG Export Plug-In . SVG Version: 6.00 Build 0)  -->
<svg version="1.1" id="图层_1" xmlns="http://www.w3.org/2000/svg" xmlns:xlink="http://www.w3.org/1999/xlink" x="0px" y="0px"
	 viewBox="0 0 150 150" style="enable-background:new 0 0 150 150;" xml:space="preserve">
<style type="text/css">
	.st0{fill:#FFFFFF;}
</style>
<title>main</title>
<polygon class="st0" points="80.5,64.6 80.5,90.1 96.4,99.2 98.2,98.2 98.2,56.5 96.4,55.4 "/>
<polygon class="st0" points="54.1,44.8 72,34.4 53.9,24 9.6,49.5 9.6,100.6 27.2,110.8 27.2,69.1 27.2,69.1 27.2,60 53.9,44.7 "/>
<polygon class="st0" points="54.1,109.9 54.1,126 68,118 "/>
<polygon class="st0" points="96.2,24 52,49.5 52,100.6 96,126 96,106 69.6,90.8 69.6,60 96.2,44.7 122.8,60 122.8,69.1 122.8,69.1 
	122.8,110.8 140.4,100.6 140.4,49.5 "/>
</svg>
