<?xml version="1.0" standalone="no"?><!DOCTYPE svg PUBLIC "-//W3C//DTD SVG 1.1//EN" "http://www.w3.org/Graphics/SVG/1.1/DTD/svg11.dtd"><svg t="1570366776042" class="icon" viewBox="0 0 1024 1024" version="1.1" xmlns="http://www.w3.org/2000/svg" p-id="2483" width="48" height="48" xmlns:xlink="http://www.w3.org/1999/xlink"><defs><style type="text/css"></style></defs><path d="M896 533.333333c-25.6 0-42.666667-17.066667-42.666667-42.666666 0-187.733333-153.6-341.333333-341.333333-341.333334s-341.333333 153.6-341.333333 341.333334c0 25.6-17.066667 42.666667-42.666667 42.666666s-42.666667-17.066667-42.666667-42.666666c0-234.666667 192-426.666667 426.666667-426.666667s426.666667 192 426.666667 426.666667c0 25.6-17.066667 42.666667-42.666667 42.666666z" p-id="2484" fill="#ffffff"></path><path d="M512 746.666667c140.8 0 256-115.2 256-256s-115.2-256-256-256-256 115.2-256 256 115.2 256 256 256z" p-id="2485" fill="#ffffff"></path><path d="M640 938.666667h-128c-12.8 0-21.333333-8.533333-21.333333-21.333334s8.533333-21.333333 21.333333-21.333333h128c128 0 234.666667-106.666667 234.666667-234.666667 0-12.8 8.533333-21.333333 21.333333-21.333333s21.333333 8.533333 21.333333 21.333333c0 153.6-123.733333 277.333333-277.333333 277.333334z" p-id="2486" fill="#ffffff"></path><path d="M896 618.666667c25.6 0 42.666667 17.066667 42.666667 42.666666v21.333334c0 25.6-17.066667 42.666667-42.666667 42.666666s-42.666667-17.066667-42.666667-42.666666v-21.333334c0-25.6 17.066667-42.666667 42.666667-42.666666z" p-id="2487" fill="#ffffff"></path><path d="M896 490.666667c46.933333 0 85.333333 38.4 85.333333 85.333333v85.333333c0 46.933333-38.4 85.333333-85.333333 85.333334s-85.333333-38.4-85.333333-85.333334v-85.333333c0-46.933333 38.4-85.333333 85.333333-85.333333zM42.666667 576c0-46.933333 38.4-85.333333 85.333333-85.333333s85.333333 38.4 85.333333 85.333333v85.333333c0 46.933333-38.4 85.333333-85.333333 85.333334s-85.333333-38.4-85.333333-85.333334v-85.333333z" p-id="2488" fill="#ffffff"></path><path d="M512 981.333333c34.133333 0 64-29.866667 64-64S546.133333 853.333333 512 853.333333s-64 29.866667-64 64 29.866667 64 64 64z" p-id="2489" fill="#ffffff"></path></svg>