<?xml version="1.0" encoding="utf-8"?>
<!-- Generator: Adobe Illustrator 21.0.0, SVG Export Plug-In . SVG Version: 6.00 Build 0)  -->
<svg version="1.1" id="图层_1" xmlns="http://www.w3.org/2000/svg" xmlns:xlink="http://www.w3.org/1999/xlink" x="0px" y="0px"
	 viewBox="0 0 200 200" style="enable-background:new 0 0 200 200;" xml:space="preserve">
<style type="text/css">
	.st0{fill:#FFFFFF;}
</style>
<path class="st0" d="M100,9C49.7,9,9,49.7,9,100s40.7,91,91,91s91-40.7,91-91S150.3,9,100,9z M114.3,133.5
	c-6.9,10.3-13.9,18.3-25.6,18.3c-8-1.3-11.3-7.1-9.6-12.9l15.1-50.1c0.4-1.2-0.2-2.5-1.4-2.9c-1.1-0.4-3.3,1.1-5.2,3.1l-9.1,11
	c-0.2-1.8,0-4.9,0-6.1c6.9-10.3,18.2-18.4,25.8-18.4c7.3,0.7,10.7,6.6,9.5,13l-15.2,50.3c-0.2,1.1,0.4,2.3,1.4,2.7
	c1.1,0.4,3.5-1.1,5.4-3.1l9.1-11C114.7,129,114.3,132.2,114.3,133.5z M112.2,68.1c-5.8,0-10.5-4.2-10.5-10.4s4.7-10.4,10.5-10.4
	c5.8,0,10.5,4.2,10.5,10.4C122.7,63.9,118,68.1,112.2,68.1z"/>
</svg>
