<?xml version="1.0" encoding="UTF-8"?>
<svg width="20px" height="16px" viewBox="0 0 20 16" version="1.1" xmlns="http://www.w3.org/2000/svg" xmlns:xlink="http://www.w3.org/1999/xlink">
    <!-- Generator: Sketch 52.2 (67145) - http://www.bohemiancoding.com/sketch -->
    <title>钱包</title>
    <desc>Created with Sketch.</desc>
    <g id="页面1" stroke="none" stroke-width="1" fill="none" fill-rule="evenodd">
        <g id="iPhone-XS备份-3" transform="translate(-30.000000, -212.000000)" fill="#fff" fill-rule="nonzero">
            <g id="钱包" transform="translate(30.000000, 212.000000)">
                <path d="M19.6125201,3.19375916 C19.6125201,1.60109051 18.3214215,0.31001557 16.7287765,0.31001557 L3.27124911,0.310015549 C1.67858046,0.310015549 0.387505521,1.60111412 0.387505521,3.19375914 L0.387505499,12.8062664 C0.387505499,14.3989351 1.67860407,15.69001 3.27124909,15.69001 L16.728755,15.69001 C18.3214236,15.69001 19.6124986,14.3989114 19.6124986,12.8062664 L19.6124986,10.8837564 L14.8062664,10.8837564 C13.2135978,10.8837564 11.9225228,9.5926578 11.9225228,8.00001278 C11.9225228,6.40736776 13.2136214,5.11626919 14.8062664,5.11626919 L19.6125201,5.11626919 L19.6125201,3.19375914 Z" id="路径"></path>
                <path d="M13.3644054,8.00007725 L13.3644054,8.00007747 C13.3644055,8.79640105 14.0099536,9.44194927 14.8062772,9.44194927 C15.6026008,9.44194915 16.248149,8.79640105 16.248149,8.00007747 C16.248149,7.20375389 15.6026008,6.55820568 14.8062772,6.55820568 C14.0099536,6.55820568 13.3644054,7.20375389 13.3644054,8.00007747 L13.3644054,8.00007725 Z" id="路径"></path>
            </g>
        </g>
    </g>
</svg>