<?xml version="1.0" encoding="UTF-8"?>
<svg width="18px" height="22px" viewBox="0 0 18 22" version="1.1" xmlns="http://www.w3.org/2000/svg" xmlns:xlink="http://www.w3.org/1999/xlink">
    <!-- Generator: Sketch 52.2 (67145) - http://www.bohemiancoding.com/sketch -->
    <title>常见问题</title>
    <desc>Created with Sketch.</desc>
    <g id="页面1" stroke="none" stroke-width="1" fill="none" fill-rule="evenodd">
        <g id="iPhone-XS备份-3" transform="translate(-30.000000, -333.000000)" fill="#fff" fill-rule="nonzero">
            <g id="常见问题" transform="translate(30.000000, 333.000000)">
                <path d="M12.0687586,8.41135744 L11.175695,8.95248932 C10.3828283,9.63647957 9.98639598,10.2209025 9.98639598,11.6884632 L8.33967473,11.6884632 L8.33967473,10.9049035 C8.33967473,9.82696886 8.74046406,9.48497158 9.5333308,8.80098133 L10.3828304,7.53256814 C10.7792627,7.23819319 10.9796585,6.74900844 10.9796585,6.16025639 C10.9796585,5.08665084 10.0865949,4.5368586 8.99313779,4.5368586 C7.90403555,4.5368586 7.01097201,5.4199856 7.01097201,6.4935933 L5.02444919,6.4935933 C5.02444919,4.34205954 6.81057627,2.58446375 8.9931335,2.58446375 C11.1756907,2.58446375 12.9618178,4.01305389 12.9618178,6.16026283 C12.9618179,7.04338984 12.5653855,7.82262043 12.0687543,8.41137678 L12.0687586,8.41135744 Z M10.5178771,15.1517012 L7.90404199,15.1517012 L7.90404199,13.4200779 L10.5178771,13.4200779 L10.5178771,15.1517012 Z M15.9372525,0 L2.04902737,0 C0.955570236,0 0.0625066969,0.584422946 0.0625066969,1.6623576 L0.0625066969,15.7924112 C0.0625066969,16.8703458 0.955570236,17.7491458 2.04902737,17.7491458 L6.01771167,17.7491458 L8.9931292,21.6972481 L11.9685467,17.7491458 L15.937231,17.7491458 C17.0306903,17.7491458 17.9237538,16.870348 17.9237538,15.7924112 L17.9237538,1.6623576 C17.9237538,0.584422946 17.0306903,-6.10623374e-16 15.937231,-6.10623374e-16 L15.9372525,0 Z" id="形状"></path>
            </g>
        </g>
    </g>
</svg>