<?xml version="1.0" encoding="UTF-8"?>
<svg width="18px" height="21px" viewBox="0 0 18 21" version="1.1" xmlns="http://www.w3.org/2000/svg" xmlns:xlink="http://www.w3.org/1999/xlink">
    <!-- Generator: Sketch 52.2 (67145) - http://www.bohemiancoding.com/sketch -->
    <title>安全</title>
    <desc>Created with Sketch.</desc>
    <g id="页面1" stroke="none" stroke-width="1" fill="none" fill-rule="evenodd">
        <g id="iPhone-XS备份-3" transform="translate(-30.000000, -251.000000)" fill="#fff" fill-rule="nonzero">
            <g id="安全" transform="translate(30.000000, 251.000000)">
                <path d="M9.0000128,0.353001574 L16.8210219,3.70800548 C17.1510223,3.85100564 17.3600225,4.17000602 17.3600225,4.52200643 L17.3600225,9.37301207 C17.3600225,10.6160135 17.1510223,11.8260149 16.7220218,13.0030163 C16.3040213,14.1800177 15.7210206,15.2360189 14.9950198,16.18202 C14.2360189,17.1720211 13.3450179,18.0080221 12.3330167,18.7010229 C11.3760156,19.3500237 10.3420144,19.8120242 9.22001306,20.1090246 C9.07701289,20.1420246 8.93401272,20.1420246 8.79101256,20.1090246 C7.66901125,19.8120242 6.63501005,19.3500237 5.67800893,18.7010229 C4.66600776,18.0080221 3.77500672,17.1720211 3.01600584,16.18202 C2.29000499,15.2360189 1.70700431,14.1800177 1.28900383,13.0030163 C0.871003341,11.8260149 0.651003085,10.6160135 0.651003085,9.37301207 L0.651003085,4.52200643 C0.651003085,4.17000602 0.860003328,3.85100564 1.19000371,3.70800548 L9.0000128,0.353001574 Z M9.0000128,9.35101204 L9.0000128,3.65300541 C9.0000128,3.01500467 8.35101204,2.58600417 7.76801137,2.83900447 L3.02700585,4.89600686 C2.70632109,5.03998823 2.49972925,5.35848436 2.49900522,5.71000781 L2.49900522,9.36201206 C2.49900522,9.84601263 2.89500568,10.2420131 3.37900625,10.2420131 L8.12001176,10.2420131 C8.60401233,10.2420131 9.00001279,10.6380135 9.00001279,11.1220141 L9.00001279,16.9960209 C9.00001279,17.6450217 9.67101357,18.0740222 10.2540142,17.7990219 C10.6610147,17.6120217 11.0460152,17.3810214 11.4090156,17.1170211 C12.1350164,16.5890205 12.7840172,15.9730198 13.3450178,15.2580189 C13.9170185,14.5540181 14.3900191,13.7840172 14.7640195,12.9260162 C14.9950198,12.4090156 15.17102,11.870015 15.3140201,11.3200143 C15.4460203,10.7700137 15.0280198,10.2310131 14.4560191,10.2310131 L9.88001381,10.2310131 C9.39601325,10.2310131 9.00001279,9.84601263 9.00001279,9.35101205 Z" id="形状"></path>
            </g>
        </g>
    </g>
</svg>