<?xml version="1.0" encoding="UTF-8"?>
<svg width="20px" height="22px" viewBox="0 0 20 22" version="1.1" xmlns="http://www.w3.org/2000/svg" xmlns:xlink="http://www.w3.org/1999/xlink">
    <!-- Generator: Sketch 52.2 (67145) - http://www.bohemiancoding.com/sketch -->
    <title>APP下载-64</title>
    <desc>Created with Sketch.</desc>
    <g id="页面1" stroke="none" stroke-width="1" fill="none" fill-rule="evenodd">
        <g id="iPhone-XS备份-3" transform="translate(-30.000000, -414.000000)" fill="#fff" fill-rule="nonzero">
            <g id="APP下载-64" transform="translate(30.000000, 414.000000)">
                <path d="M9.78138755,8.92605921 L9.78138755,10.7728303 L10.3090358,10.7728303 C11.0255964,10.7728303 11.3838767,10.461777 11.3838767,9.83967258 C11.3838767,9.21756815 11.0296677,8.91384533 10.3212497,8.92850199 L9.78138755,8.92850199 L9.78138755,8.92605921 Z M16.8875462,6.53209549 L16.8875462,1.37530238 L16.8875462,1.37530527 C16.8835156,0.61860751 16.2689502,0.00731402498 15.5122417,0.00732476718 L4.51955507,0.00732476718 C3.76000426,0.00326660074 3.14097854,0.615713561 3.13692014,1.37526445 C3.13692007,1.37527746 3.13692,1.37529048 3.13691993,1.3753035 L3.13691993,6.53209661 L0.571961866,6.53209661 L0.571961866,15.1259425 L3.13691993,15.1259425 L3.13691993,20.6247243 L3.13691991,20.6247213 C3.14095045,21.3814191 3.75551594,21.9927125 4.51222444,21.9927018 L15.5049111,21.9927018 C16.2644619,21.9967599 16.8834876,21.384313 16.887546,20.6247621 C16.8875461,20.6247491 16.8875462,20.6247361 16.8875462,20.6247231 L16.8875462,15.1259413 L19.4280765,15.1259413 L19.4280765,6.53209535 L16.8875462,6.53209535 L16.8875462,6.53209549 Z M15.5122395,1.49989042 L15.5122395,6.53209549 L4.51955291,6.53209549 L4.51955291,1.49989042 L15.5122395,1.49989042 Z M12.6639022,9.77860318 L12.6639023,9.77860474 C12.6829038,10.3237843 12.4439428,10.846055 12.0189965,11.1881103 C11.5626507,11.5505563 10.9884328,11.7315216 10.4067363,11.6962163 L9.78137479,11.6962163 L9.78137479,13.6895561 L8.55996517,13.6895561 L8.55996517,7.98067836 L10.5288772,7.98067836 C11.9522273,7.98067836 12.6639002,8.58405485 12.6639002,9.79080781 L12.6639022,9.77860318 Z M3.84288024,12.3899675 L3.42271628,13.701762 L2.10115068,13.701762 L4.19464647,7.98068116 L5.62613916,7.98068116 L7.68055053,13.701762 L6.3516566,13.701762 L5.92416431,12.3899675 L3.84288239,12.3899675 L3.84288024,12.3899675 Z M10.010987,21.3135775 C9.63188187,21.3135775 9.32455398,21.0062518 9.32455398,20.6271445 C9.32455399,20.2480394 9.63187972,19.9407115 10.010987,19.9407115 C10.3900921,19.9407115 10.69742,20.2480372 10.69742,20.6271445 L10.69742,20.6271432 C10.6960807,21.0056919 10.3895378,21.3122356 10.0109892,21.3135762 L10.010987,21.3135775 Z M15.512218,19.2518378 L4.51953142,19.2518378 L4.51953142,15.1259092 L15.512218,15.1259092 L15.512218,19.2493886 L15.512218,19.2518378 Z M16.8337836,11.1905257 C16.3774379,11.5529718 15.80322,11.733937 15.2215235,11.6986317 L14.5937192,11.6986317 L14.5937192,13.6919715 L13.3723096,13.6919715 L13.3723096,7.98066605 L15.3412216,7.98066605 C16.7645717,7.98066605 17.4762446,8.58404254 17.4762446,9.7907955 L17.4762447,9.79079651 C17.496238,10.3338706 17.2601739,10.8548394 16.8386672,11.1978593 L16.8337836,11.1905257 Z M15.1238102,8.91870081 L14.5937191,8.91870081 L14.5937191,10.7654719 L15.1286957,10.7654719 C15.8452563,10.7654719 16.2035366,10.4544186 16.2035366,9.83231418 C16.2035366,9.21020974 15.8452563,8.90811544 15.1286957,8.92602914 L15.1238102,8.91870081 Z M4.88840568,8.96022865 L4.86886313,8.96022865 C4.85494944,9.12647581 4.82132846,9.29048041 4.76870758,9.44879251 L4.11403279,11.4470179 L5.63835097,11.4470179 L4.98856174,9.46344917 L4.98856169,9.46344901 C4.94089726,9.30443673 4.91139531,9.14053847 4.90062024,8.97488516 L4.88840568,8.96022865 Z" id="形状"></path>
            </g>
        </g>
    </g>
</svg>