<?xml version="1.0" standalone="no"?><!DOCTYPE svg PUBLIC "-//W3C//DTD SVG 1.1//EN" "http://www.w3.org/Graphics/SVG/1.1/DTD/svg11.dtd"><svg t="1570541579666" class="icon" viewBox="0 0 1024 1024" version="1.1" xmlns="http://www.w3.org/2000/svg" p-id="2333" xmlns:xlink="http://www.w3.org/1999/xlink" width="48" height="48"><defs><style type="text/css"></style></defs><path d="M856.143503 793.20045l-99.048877 0 0 102.337783-99.044784 0L658.049842 793.20045l-99.048877 0L559.000965 690.817642l99.048877 0L658.049842 588.480882l99.044784 0 0 102.33676 99.044784 0 0 102.382808L856.143503 793.20045 856.143503 793.20045zM459.937762 793.20045c0 17.482163 2.296299 34.413787 5.004991 51.144844L163.304831 844.345294c-0.364297-6.918573-0.485047-13.95278-0.485047-20.918425 0-210.640418 133.046179-381.345288 297.117978-381.345288 64.918545 0 124.501572 27.420513 173.346023 72.736605C531.191596 563.43137 459.937762 669.443845 459.937762 793.20045L459.937762 793.20045 459.937762 793.20045zM462.718085 402.857231c-82.84687 0-149.972687-61.58973-149.972687-137.495514 0-75.881225 67.125817-137.444349 149.972687-137.444349 82.839707 0 150.014642 61.563124 150.014642 137.444349C612.732727 341.267501 545.557792 402.857231 462.718085 402.857231L462.718085 402.857231 462.718085 402.857231zM462.718085 402.857231" p-id="2334" fill="#ffffff"></path></svg>