<?xml version="1.0" encoding="UTF-8"?>
<svg width="20px" height="20px" viewBox="0 0 20 20" version="1.1" xmlns="http://www.w3.org/2000/svg" xmlns:xlink="http://www.w3.org/1999/xlink">
    <!-- Generator: Sketch 52.2 (67145) - http://www.bohemiancoding.com/sketch -->
    <title>关于</title>
    <desc>Created with Sketch.</desc>
    <g id="页面1" stroke="none" stroke-width="1" fill="none" fill-rule="evenodd">
        <g id="iPhone-XS备份-3" transform="translate(-30.000000, -292.000000)" fill="#fff" fill-rule="nonzero">
            <g id="关于" transform="translate(30.000000, 292.000000)">
                <path d="M9.86440327,0.344654885 C4.54222325,0.415886628 0.284487823,4.78868154 0.355730093,10.111678 C0.426964844,15.4315377 4.79995011,19.6901325 10.1221301,19.6189117 C15.4442887,19.5476799 19.7020456,15.174885 19.6308033,9.8518886 C19.560602,4.53097616 15.1865618,0.273412615 9.86440327,0.344654885 Z M10.9330137,3.55668011 C11.9125799,3.55668011 12.2017406,4.12448917 12.2017406,4.77507332 C12.2017406,5.58698384 11.5511306,6.33812787 10.4416483,6.33812787 C9.51341907,6.33812787 9.07233574,5.8708787 9.09854242,5.09983796 C9.09854239,4.4492538 9.64333524,3.55668011 10.9330137,3.55668011 Z M8.42071389,16.0056223 C7.75125999,16.0056223 7.26094946,15.5991396 7.72925352,13.8118717 L8.4972048,10.6438466 C8.63026435,10.1357491 8.65225041,9.93251741 8.4972048,9.93251741 C8.29710984,9.93251741 7.42753949,10.2834651 6.91313206,10.6291813 L6.57892288,10.0812689 C8.20804411,8.72144608 10.0813098,7.92316097 10.8838166,7.92316097 C11.5532705,7.92316097 11.6643212,8.71517478 11.3301335,9.933568 L10.4500981,13.265025 C10.2950525,13.8537856 10.3620879,14.0570388 10.5171556,14.0570388 C10.7172506,14.0570388 11.3762373,13.8139944 12.0237062,13.3048399 L12.4019111,13.8129374 C10.8188288,15.3959101 9.09122956,16.0056137 8.42072292,16.0056137 L8.42071389,16.0056223 Z" id="形状"></path>
            </g>
        </g>
    </g>
</svg>