<?xml version="1.0" encoding="UTF-8"?>
<svg width="20px" height="20px" viewBox="0 0 20 20" version="1.1" xmlns="http://www.w3.org/2000/svg" xmlns:xlink="http://www.w3.org/1999/xlink">
    <!-- Generator: Sketch 52.2 (67145) - http://www.bohemiancoding.com/sketch -->
    <title>联系我们</title>
    <desc>Created with Sketch.</desc>
    <g id="页面1" stroke="none" stroke-width="1" fill="none" fill-rule="evenodd">
        <g id="iPhone-XS备份-3" transform="translate(-30.000000, -374.000000)" fill="#fff" fill-rule="nonzero">
            <g id="联系我们" transform="translate(30.000000, 374.000000)">
                <path d="M5.90000687,9.20251071 C5.90000687,9.20251071 7.0450082,12.4725145 10.9350127,14.1737665 C10.9350127,14.1737665 11.5887635,14.5650169 12.4075144,13.9112662 L13.6375159,12.6350147 C13.6375159,12.6350147 14.3800167,12.003764 15.2950178,12.7662649 L18.9787721,15.2075177 C18.9787721,15.2075177 19.6987729,15.9925186 19.2412724,16.8637696 C19.2412724,16.8637696 17.17002,20.7900242 12.3312643,18.8487719 C12.3312643,18.8487719 3.3475039,14.573767 0.732500852,6.11625712 C0.732500852,6.11625712 -0.250000291,2.67250311 3.24000377,0.6875008 C3.24000377,0.6875008 4.06875473,0.360000419 4.85250565,1.05750123 L7.49000872,5.04625587 C7.49000872,5.04625587 7.93125923,5.71750665 7.42375864,6.24625727 C7.27250846,6.36375741 5.33375621,7.70875897 5.90000687,9.20251071 Z" id="路径"></path>
            </g>
        </g>
    </g>
</svg>