<?xml version="1.0" encoding="utf-8"?>
<!-- Generator: Adobe Illustrator 21.0.0, SVG Export Plug-In . SVG Version: 6.00 Build 0)  -->
<svg version="1.1" xmlns="http://www.w3.org/2000/svg" xmlns:xlink="http://www.w3.org/1999/xlink" x="0px" y="0px"
	 viewBox="0 0 48 48" style="enable-background:new 0 0 48 48;" xml:space="preserve">
<style type="text/css">
	.st0{display:none;}
	.st1{display:inline;fill:#43485A;}
	.st2{fill:url(#SVGID_1_);}
	.st3{fill:url(#SVGID_2_);}
</style>
<g id="图层_2" class="st0">
	<rect x="0" y="0" class="st1" width="48" height="48"/>
</g>
<g id="图层_1">
	<g>
		<linearGradient id="SVGID_1_" gradientUnits="userSpaceOnUse" x1="4.5343" y1="12.6736" x2="46.6374" y2="36.9818">
			<stop  offset="0" style="stop-color:#13A1E8"/>
			<stop  offset="1" style="stop-color:#B4E7BA"/>
		</linearGradient>
		<path class="st2" d="M24,34.1c-0.9,0-1.6-0.7-1.6-1.6l0,0V15.5c0-0.9,0.7-1.6,1.6-1.6c0.9,0,1.6,0.7,1.6,1.6v16.9
			C25.6,33.3,24.9,34.1,24,34.1z M35.2,19.2h-3.5c-0.9,0-1.6-0.7-1.6-1.6c0-0.9,0.7-1.6,1.6-1.6h3.5c0.9,0,1.6,0.7,1.6,1.6
			C36.8,18.5,36.1,19.2,35.2,19.2z M35.2,25.5h-3.5c-0.9,0-1.6-0.7-1.6-1.6c0-0.9,0.7-1.6,1.6-1.6h3.5c0.9,0,1.6,0.7,1.6,1.6
			C36.8,24.8,36.1,25.5,35.2,25.5z M35.2,31.8h-3.5c-0.9,0-1.6-0.7-1.6-1.6c0-0.9,0.7-1.6,1.6-1.6c0,0,0,0,0,0h3.5
			c0.9,0,1.6,0.7,1.6,1.6C36.8,31,36.1,31.8,35.2,31.8z M16.2,19.2h-3.5c-0.9,0-1.6-0.7-1.6-1.6c0-0.9,0.7-1.6,1.6-1.6c0,0,0,0,0,0
			h3.5c0.9,0,1.6,0.7,1.6,1.6C17.8,18.5,17,19.2,16.2,19.2z M16.2,25.5h-3.5c-0.9,0-1.6-0.7-1.6-1.6c0-0.9,0.7-1.6,1.6-1.6
			c0,0,0,0,0,0h3.5c0.9,0,1.6,0.7,1.6,1.6C17.8,24.8,17,25.5,16.2,25.5z M16.2,31.8h-3.5c-0.9,0-1.6-0.7-1.6-1.6
			c0-0.9,0.7-1.6,1.6-1.6h3.5c0.9,0,1.6,0.7,1.6,1.6C17.8,31,17,31.8,16.2,31.8C16.2,31.8,16.2,31.8,16.2,31.8z"/>
		<linearGradient id="SVGID_2_" gradientUnits="userSpaceOnUse" x1="5.3196" y1="12.319" x2="46.5606" y2="36.1295">
			<stop  offset="0" style="stop-color:#13A1E8"/>
			<stop  offset="1" style="stop-color:#B4E7BA"/>
		</linearGradient>
		<path class="st3" d="M24,46.4c-1,0-2-0.3-2.9-0.9c-0.2-0.2-0.3-0.2-0.3-0.2H5.5c-0.1,0-0.3,0-0.4,0c-2.4-0.2-4.2-2.2-4.3-4.6V5.5
			c0.1-2.6,2.3-4.7,5-4.6c0,0,0,0,0,0h14.7c1.2,0.1,2.3,0.5,3.1,1.4c0.1,0.1,0.3,0.2,0.4,0.3l0.4-0.3c0.8-0.8,1.9-1.3,3-1.3h14.7
			c2.6-0.1,4.9,2,5,4.6c0,0,0,0,0,0v24.9c-0.1,0.9-0.8,1.5-1.7,1.4c-0.8-0.1-1.4-0.7-1.4-1.4V5.5c-0.1-0.9-1-1.6-1.9-1.5H27.5
			c-0.3,0-0.5,0.2-1.1,0.6C26,5,25.6,5.3,25.1,5.6c-0.7,0.4-1.5,0.4-2.2,0c-0.4-0.3-0.8-0.6-1.2-0.9C21.1,4.2,20.9,4,20.5,4H5.8
			C4.9,3.9,4,4.6,3.9,5.5v35.2c0.1,0.9,1,1.6,1.9,1.5h15c0.8,0,1.6,0.3,2.2,0.8c0.6,0.4,1.4,0.4,2,0c0.6-0.5,1.4-0.8,2.2-0.8h16
			c0.4,0,0.8-0.4,0.8-0.8V40c0.1-0.9,0.8-1.5,1.7-1.4c0.8,0.1,1.4,0.7,1.4,1.4v1.4c0,2.1-1.7,3.9-3.9,3.9h-16c0,0-0.1,0-0.3,0.2
			C26.1,46.1,25,46.4,24,46.4z"/>
	</g>
</g>
</svg>
