<?xml version="1.0" encoding="utf-8"?>
<!-- Generator: Adobe Illustrator 21.0.0, SVG Export Plug-In . SVG Version: 6.00 Build 0)  -->
<svg version="1.1" id="图层_1" xmlns="http://www.w3.org/2000/svg" xmlns:xlink="http://www.w3.org/1999/xlink" x="0px" y="0px"
	 viewBox="0 0 48 48" style="enable-background:new 0 0 48 48;" xml:space="preserve">
<style type="text/css">
	.st0{fill:url(#SVGID_1_);}
	.st1{fill:url(#SVGID_2_);}
</style>
<linearGradient id="SVGID_1_" gradientUnits="userSpaceOnUse" x1="11.9433" y1="45.652" x2="47.0967" y2="45.652">
	<stop  offset="0" style="stop-color:#13A1E8"/>
	<stop  offset="1" style="stop-color:#B4E7BA"/>
</linearGradient>
<path class="st0" d="M47.1,45.8c-0.1,0.8-0.7,1.4-1.4,1.4H13.4c-0.9-0.1-1.5-0.8-1.4-1.7c0.1-0.8,0.7-1.4,1.4-1.4h32.3
	C46.5,44.2,47.2,44.9,47.1,45.8z"/>
<linearGradient id="SVGID_2_" gradientUnits="userSpaceOnUse" x1="0.8" y1="24.0817" x2="43.652" y2="24.0817">
	<stop  offset="0" style="stop-color:#13A1E8"/>
	<stop  offset="1" style="stop-color:#B4E7BA"/>
</linearGradient>
<path class="st1" d="M8,45.5c0.1,0.9-0.6,1.6-1.4,1.7c-0.1,0-0.1,0-0.2,0h0c-3,0-5.5-2.5-5.5-5.5c0,0,0,0,0,0V2.4
	C0.9,1.5,1.6,0.9,2.5,1C3.2,1,3.8,1.6,3.9,2.4v39.3c0,1.3,1.1,2.4,2.4,2.4C7.2,44,7.9,44.7,8,45.5z M19.7,22.1l-9.4,9.4
	C10,31.8,9.6,32,9.2,32c-0.9,0-1.5-0.7-1.6-1.5c0-0.4,0.2-0.8,0.5-1.1l10.5-10.5c0.6-0.6,1.6-0.6,2.2,0l7.3,7.1l10.2-10h-4
	c-0.9-0.1-1.5-0.8-1.4-1.7c0.1-0.8,0.7-1.4,1.4-1.4h7.1c0.2-0.1,0.4-0.1,0.6-0.2c0.9-0.1,1.6,0.6,1.7,1.4c0,0.1,0,0.1,0,0.2v8
	c0,0.9-0.6,1.6-1.5,1.6c0,0,0,0-0.1,0c-0.9,0-1.5-0.7-1.5-1.5c0,0,0,0,0-0.1v-4.3L29.1,29.2c-0.6,0.6-1.6,0.6-2.2,0L19.7,22.1z"/>
</svg>
