<?xml version="1.0" encoding="utf-8"?>
<!-- Generator: Adobe Illustrator 21.0.0, SVG Export Plug-In . SVG Version: 6.00 Build 0)  -->
<svg version="1.1" id="图层_1" xmlns="http://www.w3.org/2000/svg" xmlns:xlink="http://www.w3.org/1999/xlink" x="0px" y="0px"
	 viewBox="0 0 48 48" style="enable-background:new 0 0 48 48;" xml:space="preserve">
<style type="text/css">
	.st0{fill:url(#SVGID_1_);}
	.st1{fill:url(#SVGID_2_);}
	.st2{fill:url(#SVGID_3_);}
</style>
<linearGradient id="SVGID_1_" gradientUnits="userSpaceOnUse" x1="15.8077" y1="21.0244" x2="38.9632" y2="21.0244">
	<stop  offset="0" style="stop-color:#13A1E8"/>
	<stop  offset="1" style="stop-color:#B4E7BA"/>
</linearGradient>
<path class="st0" d="M24.3,28.5c-1.3,0-2.5-0.5-3.4-1.4l-4.6-4.7c-0.6-0.6-0.6-1.6,0-2.2c0.6-0.6,1.6-0.6,2.2,0l4.6,4.7
	c0.3,0.3,0.7,0.5,1.2,0.5c0.4,0,0.9-0.2,1.2-0.5L36.3,14c0.6-0.6,1.6-0.6,2.2,0c0.6,0.6,0.6,1.6,0,2.2L27.6,27.1
	C26.7,28,25.5,28.5,24.3,28.5z"/>
<linearGradient id="SVGID_2_" gradientUnits="userSpaceOnUse" x1="0.9385" y1="18.9916" x2="47.2397" y2="18.9916">
	<stop  offset="0" style="stop-color:#13A1E8"/>
	<stop  offset="1" style="stop-color:#B4E7BA"/>
</linearGradient>
<path class="st1" d="M38.3,35.5H14.7c-2.8,0-5.2-2.2-5.4-5L7.8,10.9c-0.1-1-0.6-1.9-1.5-2.5L1.5,5.2C0.8,4.6,0.7,3.7,1.3,3
	c0.5-0.6,1.3-0.7,1.9-0.4L8,5.8c1.6,1.1,2.7,2.8,2.8,4.8l1.5,19.6c0.1,1.2,1.1,2.2,2.4,2.2h23.6c1.2,0,2.2-0.9,2.3-2
	c0,0,0-0.1,0-0.1l3.4-17.6c0.1-1.3-0.8-2.5-2.1-2.6c-0.1,0-0.2,0-0.2,0H20.2c-0.9-0.1-1.5-0.8-1.4-1.7c0.1-0.8,0.7-1.4,1.4-1.4h21.5
	c3,0,5.5,2.4,5.5,5.4c0,0.2,0,0.5,0,0.7c0,0,0,0.1,0,0.1l-3.4,17.6C43.4,33.5,41.1,35.5,38.3,35.5z"/>
<linearGradient id="SVGID_3_" gradientUnits="userSpaceOnUse" x1="12.424" y1="41.704" x2="42.152" y2="41.704">
	<stop  offset="0" style="stop-color:#13A1E8"/>
	<stop  offset="1" style="stop-color:#B4E7BA"/>
</linearGradient>
<path class="st2" d="M18,47.2c-3.1,0-5.5-2.5-5.6-5.5c0-3.1,2.5-5.5,5.5-5.6s5.5,2.5,5.6,5.5c0,0,0,0,0,0C23.5,44.8,21,47.2,18,47.2
	z M18,39.2c-1.4,0-2.5,1.1-2.5,2.4c0,1.4,1.1,2.5,2.4,2.5c1.4,0,2.5-1.1,2.5-2.4c0,0,0,0,0,0C20.4,40.4,19.3,39.3,18,39.2L18,39.2z
	 M36.6,47.2c-3.1,0-5.5-2.5-5.6-5.5c0-3.1,2.5-5.5,5.5-5.6s5.5,2.5,5.6,5.5c0,0,0,0,0,0C42.1,44.8,39.7,47.2,36.6,47.2z M36.6,39.2
	c-1.4,0-2.4,1.1-2.4,2.4s1.1,2.4,2.4,2.4s2.4-1.1,2.4-2.4l0,0C39.1,40.4,38,39.3,36.6,39.2L36.6,39.2z"/>
</svg>
