<?xml version="1.0" encoding="utf-8"?>
<!-- Generator: Adobe Illustrator 21.0.0, SVG Export Plug-In . SVG Version: 6.00 Build 0)  -->
<svg version="1.1" id="图层_1" xmlns="http://www.w3.org/2000/svg" xmlns:xlink="http://www.w3.org/1999/xlink" x="0px" y="0px"
	 viewBox="0 0 48 48" style="enable-background:new 0 0 48 48;" xml:space="preserve">
<style type="text/css">
	.st0{fill:url(#SVGID_1_);}
	.st1{fill:url(#SVGID_2_);}
	.st2{fill:url(#SVGID_3_);}
</style>
<g>
	<linearGradient id="SVGID_1_" gradientUnits="userSpaceOnUse" x1="13.248" y1="13.312" x2="34.896" y2="13.312">
		<stop  offset="0" style="stop-color:#13A1E8"/>
		<stop  offset="1" style="stop-color:#B4E7BA"/>
	</linearGradient>
	<path class="st0" d="M24.1,24.1c6,0,10.8-4.8,10.8-10.8c0-6-4.8-10.8-10.8-10.8c-6,0-10.8,4.8-10.8,10.8
		C13.2,19.3,18.1,24.1,24.1,24.1z M24.1,5.6c4.3,0,7.7,3.5,7.7,7.7c0,0,0,0,0,0c0,4.3-3.5,7.7-7.7,7.7c-4.3,0-7.7-3.5-7.7-7.7
		S19.8,5.6,24.1,5.6z"/>
	<linearGradient id="SVGID_2_" gradientUnits="userSpaceOnUse" x1="0.7629" y1="35.0903" x2="38.4485" y2="35.0903">
		<stop  offset="0" style="stop-color:#13A1E8"/>
		<stop  offset="1" style="stop-color:#B4E7BA"/>
	</linearGradient>
	<path class="st1" d="M38.2,31.2c0.5-0.7,0.3-1.7-0.4-2.2c-2.7-1.9-5.8-3.3-9-3.9c-12.8-2.6-25.4,5.7-28,18.5c0,0,0,0,0,0.1
		c-0.1,0.8,0.4,1.6,1.3,1.8c0.1,0,0.2,0,0.3,0c0.7,0,1.4-0.5,1.5-1.2c0.6-2.8,1.7-5.4,3.4-7.8C13.8,27.2,26.7,25,36,31.6
		C36.7,32.1,37.7,31.9,38.2,31.2z"/>
	<linearGradient id="SVGID_3_" gradientUnits="userSpaceOnUse" x1="37.0171" y1="39.9603" x2="47.1989" y2="39.9603">
		<stop  offset="0" style="stop-color:#13A1E8"/>
		<stop  offset="1" style="stop-color:#B4E7BA"/>
	</linearGradient>
	<path class="st2" d="M45.7,38.1h-2v-1.7c0-0.1,0-0.1,0-0.2c-0.1-0.9-0.8-1.5-1.7-1.4c-0.9,0.1-1.5,0.8-1.4,1.7v1.7h-2
		c-0.9,0-1.5,0.7-1.5,1.5c0,0.9,0.7,1.5,1.5,1.5h2v2.5c0,0.9,0.7,1.5,1.6,1.5c0.9,0,1.5-0.7,1.5-1.5v-2.5h2c0.9,0,1.5-0.7,1.5-1.5
		C47.2,38.8,46.5,38.1,45.7,38.1z"/>
</g>
</svg>
