<?xml version="1.0" encoding="utf-8"?>
<!-- Generator: Adobe Illustrator 21.0.0, SVG Export Plug-In . SVG Version: 6.00 Build 0)  -->
<svg version="1.1" id="图层_1" xmlns="http://www.w3.org/2000/svg" xmlns:xlink="http://www.w3.org/1999/xlink" x="0px" y="0px"
	 viewBox="0 0 48 48" style="enable-background:new 0 0 48 48;" xml:space="preserve">
<style type="text/css">
	.st0{fill:url(#SVGID_1_);}
	.st1{fill:url(#SVGID_2_);}
</style>
<linearGradient id="SVGID_1_" gradientUnits="userSpaceOnUse" x1="6.8573" y1="15.656" x2="31.1613" y2="15.656">
	<stop  offset="0" style="stop-color:#13A1E8"/>
	<stop  offset="1" style="stop-color:#B4E7BA"/>
</linearGradient>
<path class="st0" d="M19,27.8c-6.7,0-12.2-5.4-12.2-12.1S12.3,3.5,19,3.5s12.2,5.4,12.2,12.1c0,2.5-0.8,5-2.2,7
	c-0.5,0.7-1.5,0.9-2.2,0.4s-0.9-1.5-0.4-2.2c2.9-4.1,1.9-9.7-2.1-12.6s-9.7-1.9-12.6,2.1S9.7,20.2,13.8,23c1.5,1.1,3.4,1.7,5.2,1.7
	c0.9,0.1,1.5,0.8,1.4,1.7C20.4,27.1,19.8,27.8,19,27.8z"/>
<linearGradient id="SVGID_2_" gradientUnits="userSpaceOnUse" x1="0.796" y1="24.0557" x2="47.2" y2="24.0557">
	<stop  offset="0" style="stop-color:#13A1E8"/>
	<stop  offset="1" style="stop-color:#B4E7BA"/>
</linearGradient>
<path class="st1" d="M35.7,44.5c-0.9,0-1.6-0.7-1.6-1.6c0-8.4-6.8-15.1-15.1-15.1c-8.3,0-15.1,6.8-15.1,15.1
	c0.1,0.9-0.6,1.6-1.4,1.7S0.9,44,0.8,43.2c0-0.1,0-0.1,0-0.2C0.8,32.9,9,24.7,19,24.7s18.2,8.2,18.2,18.2
	C37.2,43.8,36.5,44.5,35.7,44.5C35.7,44.5,35.7,44.5,35.7,44.5z M35.4,25.7c-0.9,0-1.5-0.7-1.5-1.5c0-0.5,0.2-0.9,0.6-1.2
	c4-3,4.8-8.7,1.8-12.7c-1.7-2.3-4.4-3.6-7.2-3.6c-0.9-0.1-1.5-0.8-1.4-1.7c0.1-0.8,0.7-1.4,1.4-1.4c6.7,0,12.1,5.4,12.1,12.1
	c0,3.8-1.8,7.4-4.8,9.7C36,25.5,35.7,25.7,35.4,25.7z M45.7,44.5c-0.9,0-1.6-0.7-1.6-1.6c0-6-3.5-11.4-9-13.8
	c-0.8-0.3-1.1-1.3-0.8-2c0.3-0.8,1.3-1.1,2-0.8l0,0c6.6,2.9,10.9,9.5,10.9,16.7C47.2,43.8,46.5,44.5,45.7,44.5z"/>
</svg>
