<?xml version="1.0" encoding="utf-8"?>
<!-- Generator: Adobe Illustrator 21.0.0, SVG Export Plug-In . SVG Version: 6.00 Build 0)  -->
<svg version="1.1" id="图层_1" xmlns="http://www.w3.org/2000/svg" xmlns:xlink="http://www.w3.org/1999/xlink" x="0px" y="0px"
	 viewBox="0 0 48 48" style="enable-background:new 0 0 48 48;" xml:space="preserve">
<style type="text/css">
	.st0{fill:url(#SVGID_1_);}
	.st1{fill:url(#SVGID_2_);}
	.st2{fill:#B4E7BA;}
	.st3{fill:url(#SVGID_3_);}
	.st4{fill:url(#SVGID_4_);}
</style>
<g>
	<linearGradient id="SVGID_1_" gradientUnits="userSpaceOnUse" x1="14.552" y1="12.36" x2="25.752" y2="12.36">
		<stop  offset="0" style="stop-color:#13A1E8"/>
		<stop  offset="1" style="stop-color:#B4E7BA"/>
	</linearGradient>
	<path class="st0" d="M20.2,18c3.1,0,5.6-2.5,5.6-5.6c0-3.1-2.5-5.6-5.6-5.6c-3.1,0-5.6,2.5-5.6,5.6C14.6,15.5,17.1,18,20.2,18z
		 M20.2,9.8c1.4,0,2.6,1.2,2.6,2.6s-1.2,2.6-2.6,2.6c-1.4,0-2.6-1.2-2.6-2.6S18.7,9.8,20.2,9.8z"/>
	<linearGradient id="SVGID_2_" gradientUnits="userSpaceOnUse" x1="8.872" y1="25.182" x2="31.432" y2="25.182">
		<stop  offset="0" style="stop-color:#13A1E8"/>
		<stop  offset="1" style="stop-color:#B4E7BA"/>
	</linearGradient>
	<path class="st1" d="M10.3,31.5c0.8,0.1,1.6-0.6,1.6-1.4c0-4.6,3.7-8.2,8.2-8.2c4.6,0,8.2,3.7,8.2,8.2c0,0.8,0.7,1.5,1.5,1.5
		c0,0,0,0,0,0c0.8,0,1.5-0.7,1.5-1.5c0-6.2-5-11.3-11.3-11.3c-6.2,0-11.3,5-11.3,11.3C8.9,30.8,9.5,31.4,10.3,31.5z"/>
	<path class="st2" d="M45.5,5.6c-0.8-0.1-1.6,0.6-1.6,1.4v23.4c0,0.8,0.7,1.5,1.5,1.5c0.8,0,1.5-0.7,1.5-1.5V7
		C46.8,6.3,46.3,5.7,45.5,5.6z"/>
	<linearGradient id="SVGID_3_" gradientUnits="userSpaceOnUse" x1="0.504" y1="24" x2="46.876" y2="24">
		<stop  offset="0" style="stop-color:#13A1E8"/>
		<stop  offset="1" style="stop-color:#B4E7BA"/>
	</linearGradient>
	<path class="st3" d="M45.2,38.9c-0.8,0.1-1.5,0.8-1.4,1.6c0,2-2.1,3.6-4.6,3.6h-31c-2.6,0-4.6-1.6-4.6-3.6v-4.1
		c1.1,0.7,2.3,1.1,3.7,1.1h25.9c3.7,0,6.7-3,6.7-6.7V7.5c0-3.7-3-6.7-6.7-6.7H7.2c0,0,0,0,0,0c-3.7,0-6.7,3-6.7,6.7v9.7v13.7
		c0,0,0,0,0,0v9.7c0,3.7,3.4,6.7,7.7,6.7h31c4.3,0,7.7-3,7.7-6.7c0-0.1,0-0.1,0-0.2C46.8,39.5,46.1,38.8,45.2,38.9z M3.5,17.2V7.5
		c0,0,0,0,0,0c0-2,1.7-3.6,3.7-3.6h25.9c0,0,0,0,0,0c2,0,3.6,1.6,3.6,3.6v23.4c0,0,0,0,0,0c0,2-1.7,3.6-3.7,3.6H7.2c0,0,0,0,0,0
		c-2,0-3.6-1.6-3.6-3.6V17.2z"/>
	<linearGradient id="SVGID_4_" gradientUnits="userSpaceOnUse" x1="9.2221" y1="40.516" x2="38.1379" y2="40.516">
		<stop  offset="0" style="stop-color:#13A1E8"/>
		<stop  offset="1" style="stop-color:#B4E7BA"/>
	</linearGradient>
	<path class="st4" d="M36.7,39H10.6c-0.8,0.1-1.4,0.7-1.4,1.4C9.2,41.2,9.8,42,10.6,42h26.1c0.8-0.1,1.4-0.7,1.4-1.4
		C38.2,39.8,37.6,39.1,36.7,39z"/>
</g>
</svg>
