<?xml version="1.0" encoding="utf-8"?>
<!-- Generator: Adobe Illustrator 21.0.0, SVG Export Plug-In . SVG Version: 6.00 Build 0)  -->
<svg version="1.1" id="图层_1" xmlns="http://www.w3.org/2000/svg" xmlns:xlink="http://www.w3.org/1999/xlink" x="0px" y="0px"
	 viewBox="0 0 48 48" style="enable-background:new 0 0 48 48;" xml:space="preserve">
<style type="text/css">
	.st0{fill:url(#SVGID_1_);}
	.st1{fill:url(#SVGID_2_);}
</style>
<g>
	<linearGradient id="SVGID_1_" gradientUnits="userSpaceOnUse" x1="1.0425" y1="24.312" x2="47.4425" y2="24.312">
		<stop  offset="0" style="stop-color:#13A1E8"/>
		<stop  offset="1" style="stop-color:#B4E7BA"/>
	</linearGradient>
	<path class="st0" d="M24.3,1.1C11.5,1.1,1.1,11.5,1,24.3s10.4,23.2,23.2,23.2c3.7,0,7.4-0.9,10.7-2.6c0.1,0,0.2-0.1,0.3-0.1
		c0.7-0.5,0.9-1.5,0.5-2.2c-0.5-0.7-1.5-0.9-2.2-0.5c-5.9,3.1-13,3-18.9-0.2C4.9,36.5,1.4,24.3,6.7,14.6C12.1,5,24.2,1.5,33.9,6.8
		S47.1,24.3,41.8,34c-0.3,0.7-0.1,1.5,0.6,2c0.7,0.5,1.7,0.3,2.2-0.4c1.9-3.4,2.9-7.3,2.9-11.2C47.5,11.5,37.1,1.1,24.3,1.1z"/>
	<linearGradient id="SVGID_2_" gradientUnits="userSpaceOnUse" x1="9.144" y1="24.308" x2="39.28" y2="24.308">
		<stop  offset="0" style="stop-color:#13A1E8"/>
		<stop  offset="1" style="stop-color:#B4E7BA"/>
	</linearGradient>
	<path class="st1" d="M37.3,27.8v-6.4c1.1-0.7,1.9-2,1.9-3.4c0-2.2-1.8-4.1-4.1-4.1c-0.8,0-1.5,0.2-2.2,0.6l-4.7-2.7c0,0,0,0,0-0.1
		c0-2.2-1.8-4.1-4.1-4.1s-4.1,1.8-4.1,4.1c0,0,0,0.1,0,0.1l-4.7,2.7c-0.6-0.4-1.4-0.7-2.2-0.7c-2.2,0-4.1,1.8-4.1,4.1
		c0,1.5,0.8,2.8,2,3.5v6.2c-1.2,0.7-2.1,2-2.1,3.5c0,2.2,1.8,4.1,4.1,4.1c0.8,0,1.5-0.2,2.2-0.6l4.9,3c0.3,1.9,2,3.3,4,3.3
		c2,0,3.7-1.5,4-3.4l4.8-2.9c0.6,0.4,1.3,0.6,2.1,0.6c0,0,0,0,0,0c2.2,0,4.1-1.8,4.1-4.1C39.3,29.7,38.5,28.5,37.3,27.8z M33,27.8
		l-5.6-3.2l5.5-3.2c0.3,0.2,0.7,0.4,1.2,0.5v5.4C33.7,27.4,33.4,27.6,33,27.8z M31.2,18.7l-5.4,3.1v-6.3c0.4-0.2,0.8-0.4,1.2-0.8
		l4.2,2.4c-0.1,0.3-0.1,0.5-0.1,0.8C31.1,18.2,31.2,18.5,31.2,18.7z M22.6,15.5v6.3l-5.4-3.1c0-0.2,0.1-0.5,0.1-0.7
		c0-0.3,0-0.5-0.1-0.7l4.3-2.5C21.9,15,22.2,15.3,22.6,15.5z M15.5,21.3l5.6,3.2l-5.6,3.2c-0.3-0.2-0.7-0.4-1.1-0.5v-5.5
		C14.8,21.7,15.2,21.6,15.5,21.3z M17.2,30.5l5.4-3.1v5.8c-0.6,0.3-1.1,0.7-1.6,1.2l-3.9-2.3c0.1-0.3,0.1-0.6,0.1-0.9
		C17.3,31,17.3,30.7,17.2,30.5z M25.8,33.1v-5.8l5.4,3.1c0,0.2-0.1,0.5-0.1,0.8c0,0.3,0,0.6,0.1,0.9l-3.8,2.3
		C27,33.8,26.5,33.4,25.8,33.1z"/>
</g>
</svg>
