<?xml version="1.0" encoding="utf-8"?>
<!-- Generator: Adobe Illustrator 21.0.0, SVG Export Plug-In . SVG Version: 6.00 Build 0)  -->
<svg version="1.1" id="图层_1" xmlns="http://www.w3.org/2000/svg" xmlns:xlink="http://www.w3.org/1999/xlink" x="0px" y="0px"
	 viewBox="0 0 48 48" style="enable-background:new 0 0 48 48;" xml:space="preserve">
<style type="text/css">
	.st0{fill:url(#SVGID_1_);}
	.st1{fill:url(#SVGID_2_);}
	.st2{fill:url(#SVGID_3_);}
	.st3{fill:url(#SVGID_4_);}
</style>
<g>
	<linearGradient id="SVGID_1_" gradientUnits="userSpaceOnUse" x1="1.48" y1="24" x2="46.52" y2="24">
		<stop  offset="0" style="stop-color:#13A1E8"/>
		<stop  offset="1" style="stop-color:#B4E7BA"/>
	</linearGradient>
	<path class="st0" d="M34.7,0.8H13.3C6.8,0.8,1.5,6.1,1.5,12.6v17.1c0,6.5,5.3,11.8,11.8,11.8h4.5c0.8-0.1,1.4-0.7,1.4-1.4
		c0.1-0.9-0.6-1.6-1.4-1.7h-4.5c-4.8,0-8.7-3.9-8.7-8.7V12.6c0-4.8,3.9-8.7,8.7-8.7h21.4c4.8,0,8.7,3.9,8.7,8.7v17.1
		c0,4.8-3.9,8.7-8.7,8.7h-9.3c-0.9,0-1.8,0.3-2.4,0.9l-6.2,5.1c-0.4,0.3-0.6,0.7-0.6,1.2c0,0.9,0.7,1.5,1.5,1.5c0.4,0,0.7-0.1,1-0.4
		l6.2-5.1c0.1-0.1,0.3-0.2,0.5-0.2h9.3c6.5,0,11.8-5.3,11.8-11.8V12.6C46.5,6.1,41.2,0.8,34.7,0.8z"/>
	<linearGradient id="SVGID_2_" gradientUnits="userSpaceOnUse" x1="12.2566" y1="21.988" x2="35.4007" y2="21.988">
		<stop  offset="0" style="stop-color:#13A1E8"/>
		<stop  offset="1" style="stop-color:#B4E7BA"/>
	</linearGradient>
	<path class="st1" d="M13.9,23.5h20c0.8-0.1,1.4-0.7,1.4-1.4c0.1-0.9-0.6-1.6-1.4-1.7h-20c-0.1,0-0.1,0-0.2,0
		c-0.9,0.1-1.5,0.8-1.4,1.7C12.3,23,13.1,23.6,13.9,23.5z"/>
	<linearGradient id="SVGID_3_" gradientUnits="userSpaceOnUse" x1="12.2566" y1="15.66" x2="35.4007" y2="15.66">
		<stop  offset="0" style="stop-color:#13A1E8"/>
		<stop  offset="1" style="stop-color:#B4E7BA"/>
	</linearGradient>
	<path class="st2" d="M13.9,17.2h20c0.8-0.1,1.4-0.7,1.4-1.4c0.1-0.9-0.6-1.6-1.4-1.7h-20c-0.1,0-0.1,0-0.2,0
		c-0.9,0.1-1.5,0.8-1.4,1.7C12.3,16.6,13.1,17.3,13.9,17.2z"/>
	<linearGradient id="SVGID_4_" gradientUnits="userSpaceOnUse" x1="12.3749" y1="28.312" x2="35.5029" y2="28.312">
		<stop  offset="0" style="stop-color:#13A1E8"/>
		<stop  offset="1" style="stop-color:#B4E7BA"/>
	</linearGradient>
	<path class="st3" d="M13.9,29.9h20c0.9,0,1.5-0.7,1.5-1.5c0-0.9-0.7-1.5-1.5-1.5h-20c0,0,0,0,0,0c-0.9,0-1.5,0.7-1.5,1.5
		S13.1,29.9,13.9,29.9z"/>
</g>
</svg>
